<?xml version="1.0" encoding="utf-8"?><!-- Uploaded to: SVG Repo, www.svgrepo.com, Generator: SVG Repo Mixer Tools -->
<svg width="10" height="10" viewBox="0 0 80 80" fill="none" xmlns="http://www.w3.org/2000/svg">
<g clip-path="url(#clip0_8_2)">
<path d="M9.375 1.06691L8.93309 0.625L0.625 8.93309L1.06691 9.375L1.69191 8.75H8.125C8.29069 8.74978 8.44953 8.68386 8.5667 8.5667C8.68386 8.44953 8.74978 8.29069 8.75 8.125V1.69191L9.375 1.06691ZM8.125 8.125H2.31691L4.75219 5.68969L5.49556 6.43303C5.61277 6.55024 5.77174 6.61609 5.9375 6.61609C6.10326 6.61609 6.26223 6.55024 6.37944 6.43303L6.875 5.9375L8.125 7.18666V8.125ZM8.125 6.30256L7.31694 5.49447C7.19973 5.37726 7.04076 5.31141 6.875 5.31141C6.70924 5.31141 6.55027 5.37726 6.43306 5.49447L5.9375 5.99006L5.19469 5.24722L8.125 2.31691V6.30256Z" fill="#737373"/>
<path d="M1.875 6.875V5.9375L3.4375 4.37606L3.86666 4.80522L4.30912 4.36272L3.87944 3.93303C3.76223 3.81582 3.60326 3.74998 3.4375 3.74998C3.27174 3.74998 3.11277 3.81582 2.99556 3.93303L1.875 5.05363V1.875H6.875V1.25H1.875C1.70929 1.25017 1.55042 1.31607 1.43324 1.43324C1.31607 1.55042 1.25017 1.70929 1.25 1.875V6.875H1.875Z" fill="#737373"/>
</g>
<defs>
<clipPath id="clip0_8_2">
<rect width="10" height="10" fill="white"/>
</clipPath>
</defs>
</svg>

